<?xml version="1.0" encoding="UTF-8" standalone="no"?>
<!-- Created with Inkscape (http://www.inkscape.org/) -->

<svg
   xmlns:dc="http://purl.org/dc/elements/1.1/"
   xmlns:cc="http://creativecommons.org/ns#"
   xmlns:rdf="http://www.w3.org/1999/02/22-rdf-syntax-ns#"
   xmlns:svg="http://www.w3.org/2000/svg"
   xmlns="http://www.w3.org/2000/svg"
   xmlns:sodipodi="http://sodipodi.sourceforge.net/DTD/sodipodi-0.dtd"
   xmlns:inkscape="http://www.inkscape.org/namespaces/inkscape"
   width="100"
   height="100"
   viewBox="0 0 26.458333 26.458333"
   version="1.1"
   id="svg3749"
   inkscape:version="0.92.2 (5c3e80d, 2017-08-06)"
   sodipodi:docname="bas.svg">
  <defs
     id="defs3743" />
  <sodipodi:namedview
     id="base"
     pagecolor="#ffffff"
     bordercolor="#666666"
     borderopacity="1.0"
     inkscape:pageopacity="0.0"
     inkscape:pageshadow="2"
     inkscape:zoom="1"
     inkscape:cx="51.83893"
     inkscape:cy="57.44862"
     inkscape:document-units="mm"
     inkscape:current-layer="layer1"
     showgrid="false"
     units="px"
     viewbox-height="200"
     inkscape:pagecheckerboard="true"
     inkscape:window-width="947"
     inkscape:window-height="534"
     inkscape:window-x="26"
     inkscape:window-y="495"
     inkscape:window-maximized="0" />
  <metadata
     id="metadata3746">
    <rdf:RDF>
      <cc:Work
         rdf:about="">
        <dc:format>image/svg+xml</dc:format>
        <dc:type
           rdf:resource="http://purl.org/dc/dcmitype/StillImage" />
        <dc:title></dc:title>
      </cc:Work>
    </rdf:RDF>
  </metadata>
  <g
     inkscape:label="Capa 1"
     inkscape:groupmode="layer"
     id="layer1"
     transform="translate(0,-270.54165)">
    <g
       id="use3870"
       transform="matrix(-0.18174222,-0.14030492,-0.15200831,0.16774958,31.001155,215.98771)">
      <g
         style="fill:#c4a000"
         id="g3899"
         transform="translate(-197.87113,147.80734)">
        <g
           style="fill:#fce94f;fill-opacity:1;stroke-width:0.56217629;stroke-miterlimit:4;stroke-dasharray:none"
           id="g3859"
           transform="matrix(1.5272829,-0.39049798,0.38323738,0.98066282,-205.76081,-17.398209)">
          <path
             inkscape:connector-curvature="0"
             style="color:#000000;display:inline;overflow:visible;visibility:visible;fill:#fce94f;fill-opacity:1;fill-rule:nonzero;stroke:#000000;stroke-width:1.04834104;stroke-miterlimit:4;stroke-dasharray:none;stroke-opacity:1;marker:none;enable-background:accumulate"
             id="path3855"
             transform="matrix(-0.76573595,0.45632906,0.35285583,1.0355014,88.376329,-57.120462)"
             d="m 104.97019,269.5 a 2.47019,4.4640367 0 1 1 -4.94038,0 2.47019,4.4640367 0 1 1 4.94038,0 z" />
          <path
             inkscape:connector-curvature="0"
             style="color:#000000;display:inline;overflow:visible;visibility:visible;fill:#a40000;fill-opacity:1;fill-rule:nonzero;stroke:#000000;stroke-width:1.29294097;stroke-linecap:butt;stroke-linejoin:round;stroke-miterlimit:4;stroke-dasharray:none;stroke-dashoffset:0;stroke-opacity:1;marker:none;enable-background:accumulate"
             id="path3857"
             transform="matrix(-0.4982478,0.15767391,0.15370326,0.49709972,114.71992,118.92619)"
             d="m 104.04361,268.74146 a 1.332035,3.4834334 0 1 1 -2.66407,0 1.332035,3.4834334 0 1 1 2.66407,0 z" />
        </g>
        <path
           inkscape:connector-curvature="0"
           style="fill:#c4a000;stroke:#000000;stroke-width:1.19928348;stroke-linecap:butt;stroke-linejoin:miter;stroke-miterlimit:4;stroke-dasharray:none;stroke-opacity:1"
           id="path3861"
           d="m 34.154208,100.73588 c 4.032588,40.32411 7.917596,27.98784 14.189162,66.12152 1.048624,6.88871 1.68406,17.06308 2.137105,20.41886 1.70267,12.34241 2.326103,14.18054 2.326103,14.18054 0,0 8.868914,-0.9296 9.442622,7.13107 l 1.629129,-30.41509 c 0.349185,-2.19154 3.685249,-5.14448 3.975464,-7.35384 0.290214,-2.20935 -2.731289,-3.78506 -2.121377,-8.66103 -0.293124,-21.52306 6.487719,-9.31885 8.994965,-29.32412 -0.374375,-0.86282 -1.721735,0.57411 -1.745527,-2.23428 -0.0238,-2.80837 2.630244,-7.50382 -0.883895,-7.64637 0.195473,-2.53671 4.38649,-5.04085 4.551691,-7.54603 0.1652,-2.50517 1.139246,-4.49782 1.271649,-6.9146 0.437509,-8.659166 -0.661608,1.60433 -0.813011,-7.0211 -0.05311,-2.77896 0.622943,-3.997432 0.740927,-5.797068 C 77.967198,93.874706 77.185004,92.5876 76.453252,90.249206 75.7215,87.910811 74.473314,87.164875 74.473314,87.164875 72.440171,85.96003 67.721991,73.378298 60.964666,73.643518 l -1.44e-4,-2.73e-4 c -1.512924,0.124526 -3.109654,0.754564 -5.201078,0.802851 -6.692557,0.154514 -15.539405,1.507338 -20.398922,13.681915 -2.250208,6.173207 -2.250208,6.173207 -1.210314,12.607869 z" />
        <path
           inkscape:connector-curvature="0"
           style="fill:#fce94f;fill-opacity:1;stroke:none"
           id="path3863"
           d="m 56.760786,137.1172 c 1.337476,7.69942 2.348002,15.43429 2.641197,23.19165 0.07814,0.90069 0.145659,4.75361 0.155776,2.03851 0.14188,-7.4362 0.214575,-21.55516 0.214575,-21.55516 -0.18503,-5.48353 1.300927,-10.36174 1.278945,-15.84346 0.118399,-3.57441 0.241291,-7.13698 -0.16942,-10.71345 -0.08098,-6.35701 1.39947,-11.56641 1.110535,-17.924182 -1.263488,-2.926854 -0.0928,-10.198244 -5.611374,-10.360118 -5.966736,1.666966 -2.631715,4.24031 -3.110203,6.458395 0.126567,4.005339 -0.08491,10.381945 -0.06945,12.480735 0.953644,1.43845 2.710979,21.55224 3.559419,32.22708 z" />
        <g
           style="fill:#fce94f;fill-opacity:1;stroke-width:1.20031607;stroke-miterlimit:4;stroke-dasharray:none"
           id="g3873"
           transform="matrix(-0.62870018,-0.5059798,0.65899961,-0.38669691,60.569326,197.90793)">
          <path
             inkscape:connector-curvature="0"
             style="color:#000000;display:inline;overflow:visible;visibility:visible;fill:#fce94f;fill-opacity:1;fill-rule:nonzero;stroke:#000000;stroke-width:1.61711335;stroke-miterlimit:4;stroke-dasharray:none;stroke-opacity:1;marker:none;enable-background:accumulate"
             id="path3865"
             transform="matrix(0.7736649,0.43655724,-0.33438665,1.0443282,104.16428,-214.20943)"
             d="m 107.97758,269.5 a 5.477579,2.9164442 0 1 1 -10.955158,0 5.477579,2.9164442 0 1 1 10.955158,0 z" />
          <path
             inkscape:connector-curvature="0"
             style="fill:#fce94f;fill-opacity:1;stroke:#000000;stroke-width:1.5794313;stroke-linecap:butt;stroke-linejoin:miter;stroke-miterlimit:4;stroke-dasharray:none;stroke-opacity:1"
             id="path3867"
             d="m 89.772664,108.57167 c 0,0 0.378847,-2.29697 -0.756937,-6.20688" />
          <path
             inkscape:connector-curvature="0"
             style="fill:none;stroke:#000000;stroke-width:1.5794313;stroke-linecap:butt;stroke-linejoin:miter;stroke-miterlimit:4;stroke-dasharray:none;stroke-opacity:1"
             id="path3869"
             d="m 97.64823,114.32796 c 0,0 1.589353,-2.20062 5.34469,-2.23064" />
          <path
             inkscape:connector-curvature="0"
             style="color:#000000;display:inline;overflow:visible;visibility:visible;fill:#a40000;fill-opacity:1;stroke:#000000;stroke-width:1.5794313;stroke-linecap:butt;stroke-linejoin:round;stroke-miterlimit:4;stroke-dasharray:none;stroke-dashoffset:0;stroke-opacity:1;marker:none;enable-background:accumulate"
             id="path3871"
             transform="matrix(0.68424037,0.61042655,-0.76487397,0.77911309,115.22964,-32.257949)"
             d="m 96.069681,112.09142 a 2.6637211,1.0343869 0 1 1 -5.327442,0 2.6637211,1.0343869 0 1 1 5.327442,0 z" />
        </g>
        <path
           inkscape:connector-curvature="0"
           style="fill:none;stroke:#2e3436;stroke-width:0.90145886;stroke-linecap:butt;stroke-linejoin:miter;stroke-miterlimit:4;stroke-dasharray:none;stroke-opacity:1"
           id="path3875"
           transform="matrix(-0.23929886,0.02402267,0.21633521,1.1616814,40.518652,-15.438119)"
           d="m 97.493416,143.39075 c -1.436465,-2.63352 1.567807,-3.19151 2.974094,-1.62224 1.4858,1.65801 0.83545,4.25168 -0.877597,5.46582 -2.148573,1.52282 -5.161552,0.74085 -6.562198,-1.40775 -1.618872,-2.48335 -0.714932,-5.86007 1.756287,-7.40309 2.751685,-1.71815 6.440318,-0.71112 8.104198,2.02465 1.81267,2.98042 0.7165,6.94326 -2.24683,8.71387 -3.182098,1.90133 -7.39093,0.72627 -9.257952,-2.43854 -1.984422,-3.36381 -0.738261,-7.79674 2.60848,-9.75218 2.90948,-1.69995 6.695312,-1.14902 9.049732,1.24378" />
        <path
           inkscape:connector-curvature="0"
           style="fill:none;stroke:#2e3436;stroke-width:0.47971338;stroke-linecap:butt;stroke-linejoin:miter;stroke-miterlimit:4;stroke-dasharray:none;stroke-opacity:1"
           id="path3877"
           d="m 36.062976,90.306518 c -0.435581,-0.965486 1.244799,-4.78998 3.607616,-7.673657 3.348928,-4.087164 5.727849,-5.199765 9.764724,-6.430406 M 36.895227,88.938526 c 0.0089,-1.135036 1.651786,-4.12975 3.398523,-6.26797 2.932324,-3.589524 5.658266,-4.797701 8.38909,-5.56149 M 37.907148,88.193559 c -0.05785,-0.92986 1.467454,-3.482166 2.974327,-5.335744 2.479061,-3.049449 4.305562,-3.872289 6.986341,-4.766775 m -8.814391,8.822889 c 0.103232,-0.749544 1.425284,-2.786584 2.440191,-4.046468 1.972645,-2.4488 3.989312,-3.373755 5.470738,-3.687894 m -6.426162,6.149316 c 0.177025,-0.440357 1.222095,-1.873446 1.675786,-2.450079 1.376103,-1.748997 2.674505,-2.341891 3.705227,-2.440001 m -3.429594,3.348848 c 0.522684,-0.811666 1.539547,-1.58632 2.079788,-1.722548" />
        <g
           id="g3883"
           transform="matrix(0.87242469,0,0,0.72470514,5.6944713,12.235289)">
          <path
             inkscape:connector-curvature="0"
             style="color:#000000;display:inline;overflow:visible;visibility:visible;fill:#fce94f;fill-opacity:1;fill-rule:nonzero;stroke:#000000;stroke-width:2.06072021;stroke-miterlimit:4;stroke-dasharray:none;stroke-opacity:1;marker:none;enable-background:accumulate"
             id="path3879"
             transform="matrix(-0.099526,-0.63973553,0.52030263,-0.75230154,-60.305486,487.96915)"
             d="m 107.97758,269.5 a 5.477579,2.9164442 0 1 1 -10.955158,0 5.477579,2.9164442 0 1 1 10.955158,0 z" />
          <path
             inkscape:connector-curvature="0"
             style="color:#000000;display:inline;overflow:visible;visibility:visible;fill:#a40000;fill-opacity:1;stroke:#000000;stroke-width:1.6764406;stroke-linecap:butt;stroke-linejoin:round;stroke-miterlimit:4;stroke-dasharray:none;stroke-dashoffset:0;stroke-opacity:1;marker:none;enable-background:accumulate"
             id="path3881"
             transform="matrix(-0.00359655,-0.56026224,0.62630431,-0.28361578,-0.17319024,303.83543)"
             d="m 96.069681,112.09142 a 2.6637211,1.0343869 0 1 1 -5.327442,0 2.6637211,1.0343869 0 1 1 5.327442,0 z" />
        </g>
        <path
           inkscape:connector-curvature="0"
           style="fill:none;stroke:#2e3436;stroke-width:0.47971338;stroke-linecap:butt;stroke-linejoin:miter;stroke-miterlimit:4;stroke-dasharray:none;stroke-opacity:1"
           id="path3885"
           d="m 52.589694,176.79702 c 0,0 -0.833658,2.18631 0.106177,6.66851 0.927956,7.14065 1.621611,9.37651 1.621611,9.37651 M 51.89136,175.09745 c 0,0 -0.647726,3.87315 0.292098,8.35535 0.927957,7.14065 1.656265,11.03857 1.656265,11.03857 m -2.652961,-20.84131 c 0,0 -0.480837,5.30718 0.458986,9.78938 0.927956,7.14065 1.717783,12.6382 1.717783,12.6382 m -2.982562,-23.87748 c 0,0 -0.212756,6.74373 0.727068,11.22593 0.927956,7.14064 1.770949,14.57407 1.770949,14.57407" />
        <path
           inkscape:connector-curvature="0"
           style="fill:none;stroke:#2e3436;stroke-width:0.47971338;stroke-linecap:butt;stroke-linejoin:miter;stroke-miterlimit:4;stroke-dasharray:none;stroke-opacity:1"
           id="path3887"
           d="m 40.118061,112.01546 c 0,0 -1.544033,1.81748 -0.8393,6.23335 1.489296,9.33194 4.21611,12.24655 4.21611,12.24655 m -4.539553,-21.86158 c 0,0 -1.439107,2.07658 -0.191354,9.6491 1.536783,9.32663 5.210529,16.7701 5.210529,16.7701 m -6.045005,-28.99803 c 0,0 -1.364143,1.72575 0.330776,12.26127 1.501079,9.33066 5.730723,18.7959 5.730723,18.7959 m -6.93916,-33.46606 c 0,0 -1.641597,0.0305 0.667699,14.70596 1.468803,9.33418 6.413479,21.64304 6.413479,21.64304 m -8.147934,-39.16574 c 0,0 -1.090009,2.761 1.219286,17.43649 1.468803,9.33417 7.040175,23.64677 7.040175,23.64677" />
        <g
           style="fill:#fce94f;fill-opacity:1;stroke-width:0.90455854;stroke-miterlimit:4;stroke-dasharray:none"
           id="g3897"
           transform="matrix(-0.47125198,-0.7452841,1.0000388,-0.57274394,4.9422949,271.71765)">
          <path
             inkscape:connector-curvature="0"
             style="color:#000000;display:inline;overflow:visible;visibility:visible;fill:#fce94f;fill-opacity:1;fill-rule:nonzero;stroke:#000000;stroke-width:1.21865702;stroke-miterlimit:4;stroke-dasharray:none;stroke-opacity:1;marker:none;enable-background:accumulate"
             id="path3889"
             transform="matrix(0.7736649,0.43655724,-0.33438665,1.0443282,104.16428,-214.20943)"
             d="m 107.97758,269.5 a 5.477579,2.9164442 0 1 1 -10.955158,0 5.477579,2.9164442 0 1 1 10.955158,0 z" />
          <path
             inkscape:connector-curvature="0"
             style="fill:#fce94f;fill-opacity:1;stroke:#000000;stroke-width:1.19025993;stroke-linecap:butt;stroke-linejoin:miter;stroke-miterlimit:4;stroke-dasharray:none;stroke-opacity:1"
             id="path3891"
             d="m 89.772664,108.57167 c 0,0 0.378847,-2.29697 -0.756937,-6.20688" />
          <path
             inkscape:connector-curvature="0"
             style="fill:none;stroke:#000000;stroke-width:1.19025993;stroke-linecap:butt;stroke-linejoin:miter;stroke-miterlimit:4;stroke-dasharray:none;stroke-opacity:1"
             id="path3893"
             d="m 97.64823,114.32796 c 0,0 1.589353,-2.20062 5.34469,-2.23064" />
          <path
             inkscape:connector-curvature="0"
             style="color:#000000;display:inline;overflow:visible;visibility:visible;fill:#a40000;fill-opacity:1;stroke:#000000;stroke-width:1.19025993;stroke-linecap:butt;stroke-linejoin:round;stroke-miterlimit:4;stroke-dasharray:none;stroke-dashoffset:0;stroke-opacity:1;marker:none;enable-background:accumulate"
             id="path3895"
             transform="rotate(31.561238,93.405958,112.09142)"
             d="m 96.069681,112.09142 a 2.6637211,1.0343869 0 1 1 -5.327442,0 2.6637211,1.0343869 0 1 1 5.327442,0 z" />
        </g>
      </g>
    </g>
  </g>
</svg>
