<?xml version="1.0" encoding="UTF-8" standalone="no"?>
<!-- Created with Inkscape (http://www.inkscape.org/) -->

<svg
   xmlns:dc="http://purl.org/dc/elements/1.1/"
   xmlns:cc="http://creativecommons.org/ns#"
   xmlns:rdf="http://www.w3.org/1999/02/22-rdf-syntax-ns#"
   xmlns:svg="http://www.w3.org/2000/svg"
   xmlns="http://www.w3.org/2000/svg"
   xmlns:sodipodi="http://sodipodi.sourceforge.net/DTD/sodipodi-0.dtd"
   xmlns:inkscape="http://www.inkscape.org/namespaces/inkscape"
   width="100"
   height="100"
   viewBox="0 0 26.458333 26.458333"
   version="1.1"
   id="svg3749"
   inkscape:version="0.92.2 (5c3e80d, 2017-08-06)"
   sodipodi:docname="esp.svg">
  <defs
     id="defs3743" />
  <sodipodi:namedview
     id="base"
     pagecolor="#ffffff"
     bordercolor="#666666"
     borderopacity="1.0"
     inkscape:pageopacity="0.0"
     inkscape:pageshadow="2"
     inkscape:zoom="3.65"
     inkscape:cx="50"
     inkscape:cy="50"
     inkscape:document-units="mm"
     inkscape:current-layer="layer1"
     showgrid="false"
     units="px"
     viewbox-height="200"
     inkscape:pagecheckerboard="true"
     inkscape:window-width="947"
     inkscape:window-height="534"
     inkscape:window-x="26"
     inkscape:window-y="495"
     inkscape:window-maximized="0" />
  <metadata
     id="metadata3746">
    <rdf:RDF>
      <cc:Work
         rdf:about="">
        <dc:format>image/svg+xml</dc:format>
        <dc:type
           rdf:resource="http://purl.org/dc/dcmitype/StillImage" />
        <dc:title></dc:title>
      </cc:Work>
    </rdf:RDF>
  </metadata>
  <g
     inkscape:label="Capa 1"
     inkscape:groupmode="layer"
     id="layer1"
     transform="translate(0,-270.54165)">
    <g
       transform="matrix(0.10630944,0.10672368,0.10630944,-0.10672368,-14.688933,289.56948)"
       id="use7655">
      <g
         id="g4294">
        <g
           transform="matrix(0.35546134,0,0,0.35546134,0.1729482,40.345082)"
           id="g4266"
           style="fill:#cc0000;stroke:#000000;stroke-width:2.81324553;stroke-miterlimit:4;stroke-dasharray:none;stroke-opacity:1">
          <path
             d="m 280.838,122.812 c -3.692,-2.645 -8.114,-4.501 -9.827,-4.13 -1.71,0.372 -3.275,6.334 -3.275,10.588 v 10.503 c 0,4.255 1.747,10.839 3.875,14.634 0,0 7.774,13.831 22.14,13.831 13.103,0 21.099,-11.256 21.099,-11.256 2.542,-3.581 1.603,-8.674 -2.091,-11.318 z"
             id="path4262"
             style="fill:#cc0000;stroke:#000000;stroke-width:2.81324553;stroke-miterlimit:4;stroke-dasharray:none;stroke-opacity:1"
             inkscape:connector-curvature="0" />
          <path
             d="m 280.838,122.812 c -3.692,-2.645 -8.114,-4.501 -9.827,-4.13 -1.71,0.372 -3.275,6.334 -3.275,10.588 v 10.503 c 0,4.255 1.747,10.839 3.875,14.634 0,0 7.774,13.831 22.14,13.831 13.103,0 21.099,-11.256 21.099,-11.256 2.542,-3.581 1.603,-8.674 -2.091,-11.318 z"
             id="path4264"
             style="fill:#cc0000;stroke:#000000;stroke-width:2.81324553;stroke-miterlimit:4;stroke-dasharray:none;stroke-opacity:1"
             inkscape:connector-curvature="0" />
        </g>
        <path
           d="m 112.32899,69.135685 -11.85108,-8.489839 c -0.41909,-0.333067 -2.044612,-0.153204 -2.49747,0.08816 -1.117215,0.687817 -1.551944,1.257622 -2.089402,2.219856 -0.536391,2.405051 1.226697,3.262068 1.354663,3.454728 l 14.030059,10.056002 c 1.28215,0.300009 2.22234,-0.142896 2.26287,-1.679555 v -2.600555 c -3.6e-4,-0.709857 0.27335,-1.713324 -1.20964,-3.048792 z"
           id="path4268"
           style="fill:#edd400;stroke:#000000;stroke-width:1;stroke-miterlimit:4;stroke-dasharray:none;stroke-opacity:1"
           inkscape:connector-curvature="0" />
        <path
           d="m 104.28988,58.751948 c -0.97219,0 -1.90705,0.125123 -2.78433,0.349063 -0.95832,0.30392 -1.4382,1.212123 -0.48805,1.926956 l 8.92635,6.396527 c 1.85088,1.332269 3.58411,1.110461 3.59549,-1.17871 v -0.125122 c -10e-4,-4.069677 -4.14255,-7.368714 -9.24946,-7.368714 z"
           id="path4270"
           style="fill:#cc0000;stroke:#000000;stroke-width:1;stroke-miterlimit:4;stroke-dasharray:none;stroke-opacity:1"
           inkscape:connector-curvature="0" />
        <g
           transform="matrix(0.35546134,0,0,0.35546134,-0.12866721,40.778401)"
           id="g4276"
           style="fill:#cc0000;stroke:#000000;stroke-width:2.81324553;stroke-miterlimit:4;stroke-dasharray:none;stroke-opacity:1">
          <path
             d="m 282.458,78.307 c -3.696,-2.638 -8.175,-5.05 -9.949,-5.356 -1.777,-0.309 -4.772,5.195 -4.772,9.449 v 1.024 c 0,4.255 3.033,9.884 6.738,12.513 l 38.559,27.34 c 3.708,2.626 6.739,1.296 6.739,-2.959 v -7.629 c 0,-4.255 -3.021,-9.893 -6.717,-12.534 z"
             id="path4272"
             style="fill:#cc0000;stroke:#000000;stroke-width:2.81324553;stroke-miterlimit:4;stroke-dasharray:none;stroke-opacity:1"
             inkscape:connector-curvature="0" />
          <path
             d="m 282.458,78.307 c -3.696,-2.638 -8.175,-5.05 -9.949,-5.356 -1.777,-0.309 -4.772,5.195 -4.772,9.449 v 1.024 c 0,4.255 3.033,9.884 6.738,12.513 l 38.559,27.34 c 3.708,2.626 6.739,1.296 6.739,-2.959 v -7.629 c 0,-4.255 -3.021,-9.893 -6.717,-12.534 z"
             id="path4274"
             style="fill:#cc0000;stroke:#000000;stroke-width:2.81324553;stroke-miterlimit:4;stroke-dasharray:none;stroke-opacity:1"
             inkscape:connector-curvature="0" />
        </g>
        <g
           transform="matrix(0.35546134,0,0,0.35546134,-0.12866721,40.778401)"
           id="g4286"
           style="fill:#edd400;stroke:#000000;stroke-opacity:1">
          <g
             id="g4284"
             style="fill:#edd400;stroke:#000000;stroke-opacity:1">
            <path
               d="m 292.72,51.509 c -6.942,0 -12.589,-5.66 -12.589,-12.618 0,-6.959 5.648,-12.619 12.589,-12.619 6.942,0 12.588,5.659 12.588,12.619 0.001,6.956 -5.646,12.618 -12.588,12.618 z"
               id="path4278"
               style="fill:#edd400;stroke:#000000;stroke-opacity:1"
               inkscape:connector-curvature="0" />
            <path
               d="m 292.721,28.005 c 5.986,0 10.854,4.883 10.854,10.886 0,6 -4.87,10.883 -10.854,10.883 -5.988,0 -10.858,-4.883 -10.858,-10.883 0,-6.003 4.871,-10.886 10.858,-10.886"
               id="path4280"
               style="fill:#edd400;stroke:#000000;stroke-opacity:1"
               inkscape:connector-curvature="0" />
            <path
               d="m 292.721,24.536 c -7.9,0 -14.328,6.439 -14.328,14.355 0,7.916 6.427,14.354 14.328,14.354 7.897,0 14.323,-6.439 14.323,-14.354 0.001,-7.916 -6.426,-14.355 -14.323,-14.355 z"
               id="path4282"
               style="fill:#edd400;stroke:#000000;stroke-width:2.81324553;stroke-miterlimit:4;stroke-dasharray:none;stroke-opacity:1"
               inkscape:connector-curvature="0" />
          </g>
        </g>
        <g
           transform="matrix(0.35546134,0,0,0.35546134,-0.12866721,40.778401)"
           id="g4292"
           style="fill:#edd400;stroke:#000000;stroke-width:2.81324553;stroke-miterlimit:4;stroke-dasharray:none;stroke-opacity:1">
          <path
             d="m 280.801,100.423 c -3.706,-2.628 -8.161,-4.899 -9.9,-5.047 -1.741,-0.147 -3.162,6.126 -3.162,10.36 0,4.236 3.021,9.861 6.713,12.503 l 38.313,27.425 c 3.691,2.644 6.78,4.368 6.861,3.831 0.079,-0.537 0.146,-5.465 0.146,-9.72 v -3.984 c 0,-4.253 -3.031,-9.886 -6.739,-12.512 z"
             id="path4288"
             style="fill:#edd400;stroke:#000000;stroke-width:2.81324553;stroke-miterlimit:4;stroke-dasharray:none;stroke-opacity:1"
             inkscape:connector-curvature="0" />
          <path
             d="m 280.801,100.423 c -3.706,-2.628 -8.161,-4.899 -9.9,-5.047 -1.741,-0.147 -3.162,6.126 -3.162,10.36 0,4.236 3.021,9.861 6.713,12.503 l 38.313,27.425 c 3.691,2.644 6.78,4.368 6.861,3.831 0.079,-0.537 0.146,-5.465 0.146,-9.72 v -3.984 c 0,-4.253 -3.031,-9.886 -6.739,-12.512 z"
             id="path4290"
             style="fill:#edd400;stroke:#000000;stroke-width:2.81324553;stroke-miterlimit:4;stroke-dasharray:none;stroke-opacity:1"
             inkscape:connector-curvature="0" />
        </g>
      </g>
      <g
         transform="matrix(0.35546134,0,0,0.35546134,-0.12866721,40.778401)"
         id="g4302"
         style="fill:#729fcf;fill-opacity:1;stroke:#000000;stroke-width:2.81324553;stroke-miterlimit:4;stroke-dasharray:none;stroke-opacity:1">
        <g
           id="g4300">
          <path
             d="M 293.95051,643.53791 C 290.16751,638.51891 267.06,608.373 267.058,587.214 c -0.002,-23.898 0.199,-413.743 0.202,-417.678 0,-1.154 1.035,-2.088 2.309,-2.088 h 24.86504"
             id="path4296"
             style="fill:#729fcf;fill-opacity:1;stroke:#000000;stroke-width:2.81324553;stroke-linecap:round;stroke-miterlimit:4;stroke-dasharray:none;stroke-opacity:1"
             inkscape:connector-curvature="0" />
          <path
             d="m 293.90228,643.50683 c 3.783,-5.019 26.89051,-35.16491 26.89251,-56.32391 0.002,-23.898 -0.199,-413.743 -0.202,-417.678 0,-1.154 -1.035,-2.088 -2.309,-2.088 h -24.86504"
             id="path4298"
             style="fill:#3465a4;fill-opacity:1;stroke:#000000;stroke-width:2.81324553;stroke-linecap:round;stroke-miterlimit:4;stroke-dasharray:none;stroke-opacity:1"
             inkscape:connector-curvature="0" />
        </g>
      </g>
      <g
         id="g4326">
        <g
           transform="matrix(0.35546134,0,0,0.35546134,-0.12866721,40.778401)"
           id="g4314">
          <g
             id="g4312">
            <g
               id="g4310">
              <path
                 d="m 351.896,206.172 c -6.629,0 -12.025,-5.206 -12.025,-11.606 v -18.374 l -0.506,0.012 c -2.743,0.065 -5.126,0.121 -5.704,0.14 -14.713,0.442 -37.515,18.639 -38.619,19.529 -0.562,0.502 -1.293,0.777 -2.066,0.777 -0.749,0 -1.492,-0.262 -2.088,-0.737 -0.244,-0.201 -23.655,-19.116 -38.663,-19.569 -0.617,-0.02 -3.266,-0.083 -6.215,-0.154 v 18.376 c 0,6.4 -5.392,11.606 -12.021,11.606 -6.632,0 -12.03,-5.206 -12.03,-11.606 v -17.824 h -11.961 c -5.888,0 -10.68,-4.793 -10.68,-10.685 0,-5.893 4.79,-10.684 10.68,-10.684 h 11.961 v -18.946 c 0,-6.641 5.396,-12.039 12.03,-12.039 6.629,0 12.021,5.399 12.021,12.039 v 19.286 c 0.688,0 1.46,0.002 2.329,0.002 14.865,0 42.091,-25.514 42.365,-25.771 l 0.134,-0.124 c 0.555,-0.514 1.286,-0.796 2.053,-0.796 0.827,0 1.658,0.334 2.283,0.916 9.472,8.916 30.517,25.774 42.371,25.774 0.871,0 1.64,-0.002 2.326,-0.002 v -19.285 c 0,-6.641 5.396,-12.039 12.025,-12.039 6.633,0 12.03,5.399 12.03,12.039 v 18.946 h 11.959 c 5.891,0 10.68,4.792 10.68,10.684 0,5.891 -4.789,10.685 -10.68,10.685 h -11.959 v 17.824 c 0,6.402 -5.398,11.606 -12.03,11.606 z"
                 id="path4304"
                 style="fill:#fcef3c"
                 inkscape:connector-curvature="0" />
              <path
                 d="m 351.897,126.124 c 5.676,0 10.294,4.624 10.294,10.305 v 20.679 h 13.692 c 4.933,0 8.943,4.016 8.943,8.951 0,4.935 -4.014,8.95 -8.943,8.95 h -13.692 v 19.559 c -10e-4,5.444 -4.619,9.873 -10.296,9.873 -5.674,0 -10.291,-4.429 -10.291,-9.873 v -20.15 c -3.599,0.086 -7.258,0.171 -7.994,0.194 -15.561,0.465 -38.722,19.15 -39.703,19.948 -0.259,0.243 -0.592,0.359 -0.932,0.359 -0.354,0 -0.714,-0.125 -1.002,-0.359 -0.979,-0.795 -24.142,-19.478 -39.696,-19.948 -0.743,-0.024 -4.402,-0.11 -7.999,-0.194 v 20.15 c 0,5.444 -4.615,9.873 -10.289,9.873 -5.678,0 -10.295,-4.429 -10.295,-9.873 v -19.559 h -13.693 c -4.931,0 -8.945,-4.015 -8.945,-8.95 0,-4.935 4.016,-8.951 8.945,-8.951 h 13.693 v -20.679 c 0,-5.682 4.62,-10.305 10.295,-10.305 5.674,0 10.289,4.624 10.289,10.305 v 21.009 c 1.036,0.005 2.366,0.011 4.062,0.011 15.474,0 42.417,-25.171 43.555,-26.242 l 0.12,-0.111 c 0.25,-0.234 0.56,-0.338 0.876,-0.338 0.391,0 0.791,0.162 1.096,0.45 1.14,1.071 28.084,26.242 43.556,26.242 1.699,0 3.025,-0.005 4.062,-0.01 v -21.009 c 0,-5.686 4.618,-10.307 10.292,-10.307"
                 id="path4306"
                 style="fill:#313131"
                 inkscape:connector-curvature="0" />
              <path
                 d="m 351.897,122.654 c -7.587,0 -13.762,6.181 -13.762,13.774 v 17.55 c -0.192,0 -0.389,0 -0.593,0 -11.285,0 -31.87,-16.55 -41.179,-25.3 -0.956,-0.897 -2.19,-1.39 -3.474,-1.39 -1.214,0 -2.367,0.451 -3.245,1.274 l -0.107,0.097 c -9.33,8.77 -29.915,25.319 -41.2,25.319 -0.202,0 -0.399,0 -0.589,0 v -17.55 c 0,-7.595 -6.174,-13.774 -13.761,-13.774 -7.59,0 -13.765,6.181 -13.765,13.774 v 17.209 h -10.225 c -6.845,0 -12.415,5.571 -12.415,12.421 0,6.848 5.57,12.419 12.415,12.419 h 10.225 v 16.088 c 0,7.357 6.174,13.344 13.765,13.344 7.586,0 13.761,-5.986 13.761,-13.344 v -16.598 c 2.17,0.051 3.927,0.095 4.415,0.11 14.458,0.434 37.387,18.982 37.616,19.169 0.917,0.738 2.047,1.136 3.195,1.136 1.184,0 2.309,-0.419 3.185,-1.186 7.997,-6.494 26.042,-18.774 37.552,-19.12 0.492,-0.016 2.25,-0.059 4.422,-0.11 v 16.597 c 0,7.357 6.173,13.343 13.761,13.343 7.588,0 13.765,-5.984 13.766,-13.342 v -16.09 h 10.223 c 6.846,0 12.414,-5.571 12.414,-12.418 0,-6.851 -5.568,-12.422 -12.414,-12.422 H 365.66 v -17.209 c 0.002,-7.592 -6.173,-13.771 -13.763,-13.771 z"
                 id="path4308"
                 style="fill:#edd400;stroke:#000000;stroke-width:2.81324553;stroke-miterlimit:4;stroke-dasharray:none;stroke-opacity:1"
                 inkscape:connector-curvature="0" />
            </g>
          </g>
        </g>
        <g
           transform="matrix(0.35546134,0,0,0.35546134,-0.12866721,40.778401)"
           id="g4324"
           style="fill:#cc0000;stroke:#000000;stroke-width:2.81324553;stroke-miterlimit:4;stroke-dasharray:none;stroke-opacity:1">
          <g
             id="g4322"
             style="fill:#cc0000;stroke:#000000;stroke-width:2.81324553;stroke-miterlimit:4;stroke-dasharray:none;stroke-opacity:1">
            <path
               d="m 293.103,180.977 c -8.836,0 -16.027,-7.208 -16.027,-16.066 0,-8.855 7.191,-16.06 16.027,-16.06 8.835,0 16.024,7.204 16.024,16.06 0,8.858 -7.188,16.066 -16.024,16.066 z"
               id="path4316"
               style="fill:#cc0000;stroke:#000000;stroke-width:2.81324553;stroke-miterlimit:4;stroke-dasharray:none;stroke-opacity:1"
               inkscape:connector-curvature="0" />
            <path
               d="m 293.105,150.582 c 7.876,0 14.289,6.428 14.289,14.328 0,7.903 -6.412,14.329 -14.289,14.329 -7.88,0 -14.293,-6.426 -14.293,-14.329 0,-7.9 6.413,-14.328 14.293,-14.328"
               id="path4318"
               style="fill:#cc0000;stroke:#000000;stroke-width:2.81324553;stroke-miterlimit:4;stroke-dasharray:none;stroke-opacity:1"
               inkscape:connector-curvature="0" />
            <path
               d="m 293.105,147.113 c -9.795,0 -17.763,7.984 -17.763,17.799 0,9.815 7.966,17.799 17.763,17.799 9.794,0 17.757,-7.986 17.757,-17.799 0,-9.815 -7.965,-17.799 -17.757,-17.799 z"
               id="path4320"
               style="fill:#cc0000;stroke:#000000;stroke-width:2.81324553;stroke-miterlimit:4;stroke-dasharray:none;stroke-opacity:1"
               inkscape:connector-curvature="0" />
          </g>
        </g>
      </g>
    </g>
  </g>
</svg>
