<?xml version="1.0" encoding="UTF-8" standalone="no"?>
<!-- Created with Inkscape (http://www.inkscape.org/) -->

<svg
   xmlns:dc="http://purl.org/dc/elements/1.1/"
   xmlns:cc="http://creativecommons.org/ns#"
   xmlns:rdf="http://www.w3.org/1999/02/22-rdf-syntax-ns#"
   xmlns:svg="http://www.w3.org/2000/svg"
   xmlns="http://www.w3.org/2000/svg"
   xmlns:sodipodi="http://sodipodi.sourceforge.net/DTD/sodipodi-0.dtd"
   xmlns:inkscape="http://www.inkscape.org/namespaces/inkscape"
   width="100"
   height="100"
   viewBox="0 0 26.458333 26.458333"
   version="1.1"
   id="svg3749"
   inkscape:version="0.92.2 (5c3e80d, 2017-08-06)"
   sodipodi:docname="n_0.svg">
  <defs
     id="defs3743" />
  <sodipodi:namedview
     id="base"
     pagecolor="#ffffff"
     bordercolor="#666666"
     borderopacity="1.0"
     inkscape:pageopacity="0.0"
     inkscape:pageshadow="2"
     inkscape:zoom="3.7512071"
     inkscape:cx="28.048575"
     inkscape:cy="58.073945"
     inkscape:document-units="mm"
     inkscape:current-layer="layer1"
     showgrid="false"
     units="px"
     viewbox-height="200"
     inkscape:pagecheckerboard="true"
     inkscape:window-width="1134"
     inkscape:window-height="782"
     inkscape:window-x="65"
     inkscape:window-y="108"
     inkscape:window-maximized="0" />
  <metadata
     id="metadata3746">
    <rdf:RDF>
      <cc:Work
         rdf:about="">
        <dc:format>image/svg+xml</dc:format>
        <dc:type
           rdf:resource="http://purl.org/dc/dcmitype/StillImage" />
        <dc:title></dc:title>
      </cc:Work>
    </rdf:RDF>
  </metadata>
  <g
     inkscape:label="Capa 1"
     inkscape:groupmode="layer"
     id="layer1"
     transform="translate(0,-270.54165)">
    <g
       aria-label="0"
       transform="scale(0.99713612,1.0028721)"
       style="font-style:normal;font-variant:normal;font-weight:bold;font-stretch:normal;font-size:34.69580078px;line-height:1.25;font-family:Castellar;-inkscape-font-specification:'Castellar Bold';letter-spacing:0px;word-spacing:0px;fill:#000000;fill-opacity:1;stroke:none;stroke-width:0.26021853"
       id="text3764">
      <path
         d="m 13.411164,270.2945 q 2.354842,0 4.726625,1.13507 2.371783,1.13507 4.048973,4.01509 1.694131,2.88002 1.694131,7.72524 0,3.26967 -0.914831,5.6584 -0.897889,2.38872 -2.422607,3.87956 -1.507777,1.47389 -3.405203,2.20237 -1.880486,0.71153 -3.862619,0.71153 -2.575079,0 -4.997686,-1.20283 -2.4226071,-1.21978 -4.0320315,-4.03203 -1.592483,-2.81226 -1.592483,-7.217 0,-3.76097 1.0334198,-6.35299 1.0503612,-2.59202 2.6597855,-3.98121 1.6263657,-1.40613 3.456027,-1.96519 1.8296612,-0.57601 3.6084992,-0.57601 z m -0.169413,1.15201 q -2.270136,0 -4.0997972,1.79578 -0.7623589,0.76236 -1.2875395,1.67719 -0.5082393,0.91483 -0.8470654,2.13461 -0.3388262,1.20283 -0.5082393,2.74449 -0.1694131,1.54166 -0.1694131,3.47297 0,2.4226 0.3218849,4.1845 0.3218848,1.74495 0.9148307,2.98167 0.6098871,1.23672 1.5755417,2.20237 1.8127202,1.81272 4.0997972,1.81272 2.354842,0 4.235327,-1.88048 0.931772,-0.93178 1.541659,-2.33791 0.609887,-1.42307 0.880948,-3.21884 0.271061,-1.79578 0.271061,-4.04898 0,-3.81179 -0.711535,-6.08193 -0.694594,-2.27013 -2.168488,-3.71014 -1.728013,-1.72802 -4.048972,-1.72802 z m -0.830125,-0.52518 v -0.27106 q -1.30448,0.2033 -2.7275503,0.71154 -1.4061287,0.50824 -2.9308465,1.82966 -1.5077765,1.32142 -2.524255,3.82873 -1.0164785,2.49038 -1.0164785,6.28523 0,3.37132 1.152009,5.99722 1.1689503,2.60896 3.2527313,4.11674 2.083781,1.49084 4.828273,1.79578 v -0.22024 Q 10.26008,294.55446 8.7184211,293.5041 7.176762,292.45374 6.2280487,290.86125 5.2793353,289.25183 4.8727439,287.3544 q -0.4065914,-1.91437 -0.4065914,-4.28615 0,-5.98028 2.2701354,-8.75866 2.2701354,-2.77837 5.6753381,-3.38826 z m 1.660249,-0.0678 v 0.27106 q 2.676727,0.576 4.15062,2.35484 1.473894,1.7619 1.999075,4.25227 0.542122,2.47343 0.542122,5.47204 0,3.52379 -0.728477,5.91252 -0.728476,2.38872 -2.20237,3.77791 -1.473894,1.38919 -3.727088,1.93131 l -0.03388,0.25412 q 2.710609,-0.44048 4.370857,-1.86355 1.660249,-1.42306 2.422608,-3.28661 0.762359,-1.88048 0.948713,-3.57462 0.203296,-1.71107 0.203296,-3.42214 0,-4.28615 -1.118127,-6.81041 -1.118126,-2.54119 -2.84614,-3.65932 -1.711072,-1.11812 -3.981207,-1.60942 z"
         style="stroke-width:0.26021853"
         id="path3766"
         inkscape:connector-curvature="0" />
    </g>
  </g>
</svg>
