<?xml version="1.0" encoding="UTF-8" standalone="no"?>
<!-- Created with Inkscape (http://www.inkscape.org/) -->

<svg
   xmlns:dc="http://purl.org/dc/elements/1.1/"
   xmlns:cc="http://creativecommons.org/ns#"
   xmlns:rdf="http://www.w3.org/1999/02/22-rdf-syntax-ns#"
   xmlns:svg="http://www.w3.org/2000/svg"
   xmlns="http://www.w3.org/2000/svg"
   xmlns:sodipodi="http://sodipodi.sourceforge.net/DTD/sodipodi-0.dtd"
   xmlns:inkscape="http://www.inkscape.org/namespaces/inkscape"
   width="100"
   height="100"
   viewBox="0 0 26.458333 26.458333"
   version="1.1"
   id="svg3749"
   inkscape:version="0.92.2 (5c3e80d, 2017-08-06)"
   sodipodi:docname="n_3.svg">
  <defs
     id="defs3743" />
  <sodipodi:namedview
     id="base"
     pagecolor="#ffffff"
     bordercolor="#666666"
     borderopacity="1.0"
     inkscape:pageopacity="0.0"
     inkscape:pageshadow="2"
     inkscape:zoom="4.33"
     inkscape:cx="51.83893"
     inkscape:cy="51.392059"
     inkscape:document-units="mm"
     inkscape:current-layer="layer1"
     showgrid="false"
     units="px"
     viewbox-height="200"
     inkscape:pagecheckerboard="true"
     inkscape:window-width="1199"
     inkscape:window-height="782"
     inkscape:window-x="65"
     inkscape:window-y="108"
     inkscape:window-maximized="0" />
  <metadata
     id="metadata3746">
    <rdf:RDF>
      <cc:Work
         rdf:about="">
        <dc:format>image/svg+xml</dc:format>
        <dc:type
           rdf:resource="http://purl.org/dc/dcmitype/StillImage" />
        <dc:title></dc:title>
      </cc:Work>
    </rdf:RDF>
  </metadata>
  <g
     inkscape:label="Capa 1"
     inkscape:groupmode="layer"
     id="layer1"
     transform="translate(0,-270.54165)">
    <g
       aria-label="3"
       transform="scale(1.0131304,0.98703977)"
       style="font-style:normal;font-variant:normal;font-weight:bold;font-stretch:normal;font-size:35.25233078px;line-height:1.25;font-family:Castellar;-inkscape-font-specification:'Castellar Bold';letter-spacing:0px;word-spacing:0px;fill:#000000;fill-opacity:1;stroke:none;stroke-width:0.26439244"
       id="text3778">
      <path
         d="m 14.460578,286.69644 0.137704,0.1377 q 2.013927,-0.98114 3.132776,-2.28933 1.136061,-1.30819 1.136061,-3.2877 0,-1.77294 -0.809013,-3.08113 -0.791801,-1.30819 -2.168845,-1.99672 -1.359831,-0.70573 -2.87458,-0.70573 -1.445896,0 -2.685236,0.58524 -1.2221266,0.56803 -1.9278617,1.63524 l 0.1032783,0.0861 q 1.8073704,-1.60082 4.2688374,-1.60082 1.222126,0 2.340975,0.58525 1.136061,0.56803 1.824583,1.70409 0.705735,1.11885 0.705735,2.65081 0,3.58031 -3.184414,5.57703 z m 0.103278,0.63688 -0.137704,0.20656 q 1.308192,0.49918 2.168844,1.3254 0.877866,0.80902 1.290979,1.85901 0.413113,1.03279 0.413113,2.2377 0,1.4459 -0.654096,2.84015 -0.654096,1.39426 -2.013927,2.32377 -1.359831,0.91229 -3.287693,0.91229 -0.809013,0 -1.428683,-0.10328 -0.61967,-0.10328 -1.1360615,-0.27541 -0.4991785,-0.17213 -1.0327832,-0.36147 v 0.17213 q 1.1877006,0.56803 2.1688447,0.82622 0.981144,0.2582 2.03114,0.2582 1.738518,0 3.253267,-0.84344 1.531962,-0.86065 2.42704,-2.35819 0.912292,-1.49753 0.912292,-3.25327 0,-1.39425 -0.671309,-2.59917 -0.671309,-1.20491 -1.790157,-1.99671 -1.101636,-0.7918 -2.513106,-1.17049 z m -7.263908,-6.9885 v -0.80901 q 0,-1.10164 0.6196698,-2.22048 0.636883,-1.13607 2.0139271,-1.91065 1.3770441,-0.77459 3.4426101,-0.77459 2.392615,0 4.010642,0.91229 1.635239,0.91229 2.42704,2.30655 0.7918,1.37704 0.7918,2.7713 0,1.25655 -0.516391,2.42704 -0.499179,1.15328 -1.652453,2.18606 -1.136062,1.01557 -2.977858,1.77294 v 0.0689 q 2.616384,0.37868 4.28605,1.99671 1.669666,1.61803 1.669666,4.25162 0,1.73852 -0.946718,3.37376 -0.946718,1.61803 -2.805728,2.65081 -1.841796,1.01557 -4.423754,1.01557 -1.910649,0 -3.5458888,-0.61967 -1.6180269,-0.63688 -2.9090058,-1.94507 -1.2737659,-1.32541 -2.0827793,-3.2877 l 0.1721305,-0.0688 q 1.3770442,1.85901 3.2704799,3.0295 1.9106485,1.17049 4.0967065,1.17049 1.394257,0 2.65081,-0.63689 1.256553,-0.65409 2.03114,-1.94507 0.791801,-1.30819 0.791801,-3.06392 0,-1.94508 -1.23934,-3.52868 -1.222127,-1.5836 -3.941789,-2.06557 v -0.22377 q 2.099992,-0.77458 3.322119,-2.34097 1.222127,-1.56639 1.222127,-3.64917 0,-1.60081 -0.722949,-2.65081 -0.705735,-1.04999 -1.721305,-1.48032 -1.01557,-0.44754 -1.927862,-0.44754 -0.809013,0 -1.910648,0.32705 -1.0844227,0.30983 -1.9967145,1.13606 -0.9122918,0.80901 -1.2049136,2.27212 z"
         style="font-size:35.25233078px;stroke-width:0.26439244"
         id="path3780"
         inkscape:connector-curvature="0" />
    </g>
  </g>
</svg>
