<?xml version="1.0" encoding="UTF-8" standalone="no"?>
<!-- Created with Inkscape (http://www.inkscape.org/) -->

<svg
   xmlns:dc="http://purl.org/dc/elements/1.1/"
   xmlns:cc="http://creativecommons.org/ns#"
   xmlns:rdf="http://www.w3.org/1999/02/22-rdf-syntax-ns#"
   xmlns:svg="http://www.w3.org/2000/svg"
   xmlns="http://www.w3.org/2000/svg"
   xmlns:sodipodi="http://sodipodi.sourceforge.net/DTD/sodipodi-0.dtd"
   xmlns:inkscape="http://www.inkscape.org/namespaces/inkscape"
   width="100"
   height="100"
   viewBox="0 0 26.458333 26.458333"
   version="1.1"
   id="svg3749"
   inkscape:version="0.92.2 (5c3e80d, 2017-08-06)"
   sodipodi:docname="n_5.svg">
  <defs
     id="defs3743" />
  <sodipodi:namedview
     id="base"
     pagecolor="#ffffff"
     bordercolor="#666666"
     borderopacity="1.0"
     inkscape:pageopacity="0.0"
     inkscape:pageshadow="2"
     inkscape:zoom="4.33"
     inkscape:cx="51.83893"
     inkscape:cy="56.97355"
     inkscape:document-units="mm"
     inkscape:current-layer="layer1"
     showgrid="false"
     units="px"
     viewbox-height="200"
     inkscape:pagecheckerboard="true"
     inkscape:window-width="1199"
     inkscape:window-height="782"
     inkscape:window-x="65"
     inkscape:window-y="108"
     inkscape:window-maximized="0" />
  <metadata
     id="metadata3746">
    <rdf:RDF>
      <cc:Work
         rdf:about="">
        <dc:format>image/svg+xml</dc:format>
        <dc:type
           rdf:resource="http://purl.org/dc/dcmitype/StillImage" />
        <dc:title></dc:title>
      </cc:Work>
    </rdf:RDF>
  </metadata>
  <g
     inkscape:label="Capa 1"
     inkscape:groupmode="layer"
     id="layer1"
     transform="translate(0,-270.54165)">
    <g
       aria-label="5"
       transform="scale(1.0195695,0.98080611)"
       style="font-style:normal;font-variant:normal;font-weight:bold;font-stretch:normal;font-size:34.86994934px;line-height:1.25;font-family:Castellar;-inkscape-font-specification:'Castellar Bold';letter-spacing:0px;word-spacing:0px;fill:#000000;fill-opacity:1;stroke:none;stroke-width:0.26152462"
       id="text3792">
      <path
         d="m 11.970693,277.73765 h -1.123738 l -2.7582679,9.26233 1.191844,-0.23837 z m 7.985355,0.40863 h -6.282721 q -0.902396,2.65611 -1.498318,4.73333 -0.595922,2.07721 -0.970501,3.71174 h 1.345081 q 2.111266,0 3.643637,0.62997 1.549397,0.61295 2.46882,1.61751 0.919422,1.00455 1.328054,2.19639 0.408633,1.17482 0.408633,2.38369 0,1.80479 -0.834291,3.43932 -0.834291,1.61751 -2.28153,2.86043 -1.430213,1.22589 -3.132847,1.88992 -1.685608,0.66403 -3.371216,0.66403 -1.4131862,0 -2.8093463,-0.30647 -1.3961601,-0.32351 -2.5198987,-0.86835 l 0.1362108,-0.18729 q 1.0726596,0.35756 2.3326089,0.35756 1.8728977,0 3.4733743,-0.59593 1.617502,-0.59592 2.79232,-1.66858 1.191844,-1.08968 1.838845,-2.5199 0.647001,-1.43021 0.647001,-3.06474 0,-1.60047 -0.664028,-2.74124 -0.664027,-1.14076 -1.71966,-1.80479 -1.055633,-0.68106 -2.315583,-0.9705 -1.242923,-0.30648 -2.4858458,-0.30648 -0.8513171,0 -2.1282928,0.17027 0.69808,-2.29856 1.0556332,-3.4904 0.3745796,-1.20887 0.7832118,-2.62206 0.4256585,-1.41319 0.749159,-2.57098 0.3405266,-1.17482 0.5278166,-2.00911 h 6.929721 q 1.95803,0 2.996637,-0.69808 h 0.102158 z m -8.547224,9.1091 -0.03405,0.13621 q 1.208871,0.15323 2.315583,0.62997 1.106712,0.45971 1.90695,1.24292 0.800238,0.78322 1.225897,1.85588 0.442685,1.05563 0.442685,2.43476 0,1.34508 -0.527817,2.70719 -0.51079,1.36211 -1.566423,2.50287 -1.038607,1.14077 -2.605031,1.90695 -1.549397,0.74916 -3.5585054,0.9024 v 0.18729 h 0.9023962 q 2.1453192,0 4.1544272,-1.14077 2.009109,-1.14076 3.235005,-3.06474 1.225897,-1.92397 1.225897,-4.1374 0,-1.53237 -0.561869,-2.72421 -0.544843,-1.19185 -1.447239,-1.92398 -0.902397,-0.74916 -2.077214,-1.12374 -1.157791,-0.3916 -2.400714,-0.3916 z"
         style="stroke-width:0.26152462"
         id="path3794"
         inkscape:connector-curvature="0" />
    </g>
  </g>
</svg>
