<?xml version="1.0" encoding="UTF-8" standalone="no"?>
<!-- Created with Inkscape (http://www.inkscape.org/) -->

<svg
   xmlns:dc="http://purl.org/dc/elements/1.1/"
   xmlns:cc="http://creativecommons.org/ns#"
   xmlns:rdf="http://www.w3.org/1999/02/22-rdf-syntax-ns#"
   xmlns:svg="http://www.w3.org/2000/svg"
   xmlns="http://www.w3.org/2000/svg"
   xmlns:sodipodi="http://sodipodi.sourceforge.net/DTD/sodipodi-0.dtd"
   xmlns:inkscape="http://www.inkscape.org/namespaces/inkscape"
   width="100"
   height="100"
   viewBox="0 0 26.458333 26.458333"
   version="1.1"
   id="svg3749"
   inkscape:version="0.92.2 (5c3e80d, 2017-08-06)"
   sodipodi:docname="n_6.svg">
  <defs
     id="defs3743" />
  <sodipodi:namedview
     id="base"
     pagecolor="#ffffff"
     bordercolor="#666666"
     borderopacity="1.0"
     inkscape:pageopacity="0.0"
     inkscape:pageshadow="2"
     inkscape:zoom="4.33"
     inkscape:cx="51.83893"
     inkscape:cy="57.20458"
     inkscape:document-units="mm"
     inkscape:current-layer="layer1"
     showgrid="false"
     units="px"
     viewbox-height="200"
     inkscape:pagecheckerboard="true"
     inkscape:window-width="1199"
     inkscape:window-height="782"
     inkscape:window-x="65"
     inkscape:window-y="108"
     inkscape:window-maximized="0" />
  <metadata
     id="metadata3746">
    <rdf:RDF>
      <cc:Work
         rdf:about="">
        <dc:format>image/svg+xml</dc:format>
        <dc:type
           rdf:resource="http://purl.org/dc/dcmitype/StillImage" />
        <dc:title></dc:title>
      </cc:Work>
    </rdf:RDF>
  </metadata>
  <g
     inkscape:label="Capa 1"
     inkscape:groupmode="layer"
     id="layer1"
     transform="translate(0,-270.54165)">
    <g
       aria-label="6"
       transform="scale(1.0079388,0.99212373)"
       style="font-style:normal;font-variant:normal;font-weight:bold;font-stretch:normal;font-size:35.07168198px;line-height:1.25;font-family:Castellar;-inkscape-font-specification:'Castellar Bold';letter-spacing:0px;word-spacing:0px;fill:#000000;fill-opacity:1;stroke:none;stroke-width:0.26303765"
       id="text3799">
      <path
         d="m 7.6878321,286.80281 v 2.2091 q 0,2.56873 0.7192435,4.55521 0.7363683,1.98648 1.9351074,3.0311 1.198739,1.04461 2.551602,1.04461 1.215864,0 2.277604,-0.90761 1.078865,-0.90762 1.72961,-2.62011 0.650744,-1.7296 0.650744,-3.92159 0,-2.2776 -0.719244,-3.69896 -0.719243,-1.42136 -1.763859,-1.98648 -1.02749,-0.58225 -2.140605,-0.58225 -1.592611,0 -2.894099,0.78774 -1.2843635,0.77062 -2.3461039,2.08924 z m 14.6246179,-12.63814 -0.0685,0.25687 q -1.232989,-0.39387 -2.551602,-0.39387 -1.798108,0 -3.733216,0.77062 -1.935107,0.75349 -3.596217,2.22623 -1.643985,1.47274 -2.8427245,3.73322 -1.1987391,2.24335 -1.6439851,5.1717 l 0.068499,0.0685 q 1.1816143,-1.78099 2.8598496,-2.84273 1.678235,-1.06174 3.596217,-1.06174 1.643985,0 2.911224,0.6165 1.267238,0.61649 2.15773,1.71248 0.907617,1.07887 1.352863,2.50023 0.445246,1.40424 0.445246,2.9626 0,2.0036 -0.702119,3.66471 -0.702118,1.66111 -1.900857,2.85985 -1.19874,1.19874 -2.585852,1.81524 -1.369988,0.59937 -2.774225,0.59937 -2.962598,0 -5.1032039,-1.55836 -2.1234808,-1.57549 -3.202346,-4.09284 -1.0617404,-2.53448 -1.0617404,-5.32583 0,-2.79135 0.993241,-5.46282 0.993241,-2.6886 2.7913497,-4.74359 1.7981087,-2.0721 4.1613376,-3.23659 2.363229,-1.18162 5.103204,-1.18162 1.438487,0 2.876974,0.25688 1.438487,0.23974 2.448853,0.68499 z m -11.079775,9.55566 v 0.10275 q 0.616494,-0.35962 1.763859,-0.35962 1.575486,0 2.72285,0.78774 1.147365,0.77062 1.763859,2.32898 0.63362,1.54124 0.63362,3.76747 0,2.19198 -0.667869,3.81884 -0.650744,1.62686 -1.643985,2.5516 -0.993241,0.90762 -1.969358,1.16449 v 0.17125 q 1.558361,-0.32537 2.8256,-1.38711 1.284363,-1.07887 1.986482,-2.7571 0.719243,-1.67824 0.719243,-3.85309 0,-2.39748 -0.770618,-3.97297 -0.770618,-1.57548 -2.037856,-2.29473 -1.250114,-0.73637 -2.722851,-0.73637 -0.565119,0 -1.369987,0.18838 -0.804868,0.18837 -1.232989,0.47949 z m 0.924742,14.69312 v -0.22262 q -1.866608,-0.274 -3.3222203,-1.67824 -1.4556118,-1.40423 -2.2433546,-3.59621 -0.7877429,-2.20911 -0.7877429,-4.84634 0,-2.77422 0.8904919,-5.2402 0.9076168,-2.4831 2.5002274,-4.43533 1.6097355,-1.95224 3.7503405,-3.1681 2.157731,-1.21586 4.503835,-1.47274 v -0.17124 q -2.517353,0 -4.863456,1.11311 -2.328979,1.11312 -4.1442127,3.06535 -1.8152335,1.95223 -2.8598491,4.53808 -1.0446155,2.58585 -1.0446155,5.3772 0,2.85985 1.0103658,5.22308 1.0103659,2.36323 2.7399752,3.81884 1.7467343,1.43849 3.8702153,1.69536 z"
         style="stroke-width:0.26303765"
         id="path3801"
         inkscape:connector-curvature="0" />
    </g>
  </g>
</svg>
