<?xml version="1.0" encoding="UTF-8" standalone="no"?>
<!-- Created with Inkscape (http://www.inkscape.org/) -->

<svg
   xmlns:dc="http://purl.org/dc/elements/1.1/"
   xmlns:cc="http://creativecommons.org/ns#"
   xmlns:rdf="http://www.w3.org/1999/02/22-rdf-syntax-ns#"
   xmlns:svg="http://www.w3.org/2000/svg"
   xmlns="http://www.w3.org/2000/svg"
   xmlns:sodipodi="http://sodipodi.sourceforge.net/DTD/sodipodi-0.dtd"
   xmlns:inkscape="http://www.inkscape.org/namespaces/inkscape"
   width="100"
   height="100"
   viewBox="0 0 26.458333 26.458333"
   version="1.1"
   id="svg3749"
   inkscape:version="0.92.2 (5c3e80d, 2017-08-06)"
   sodipodi:docname="n_7.svg">
  <defs
     id="defs3743" />
  <sodipodi:namedview
     id="base"
     pagecolor="#ffffff"
     bordercolor="#666666"
     borderopacity="1.0"
     inkscape:pageopacity="0.0"
     inkscape:pageshadow="2"
     inkscape:zoom="4.33"
     inkscape:cx="51.83893"
     inkscape:cy="57.20458"
     inkscape:document-units="mm"
     inkscape:current-layer="layer1"
     showgrid="false"
     units="px"
     viewbox-height="200"
     inkscape:pagecheckerboard="true"
     inkscape:window-width="1199"
     inkscape:window-height="782"
     inkscape:window-x="65"
     inkscape:window-y="108"
     inkscape:window-maximized="0" />
  <metadata
     id="metadata3746">
    <rdf:RDF>
      <cc:Work
         rdf:about="">
        <dc:format>image/svg+xml</dc:format>
        <dc:type
           rdf:resource="http://purl.org/dc/dcmitype/StillImage" />
        <dc:title></dc:title>
      </cc:Work>
    </rdf:RDF>
  </metadata>
  <g
     inkscape:label="Capa 1"
     inkscape:groupmode="layer"
     id="layer1"
     transform="translate(0,-270.54165)">
    <g
       aria-label="7"
       transform="scale(1.0241646,0.97640556)"
       style="font-style:normal;font-variant:normal;font-weight:bold;font-stretch:normal;font-size:34.50532532px;line-height:1.25;font-family:Castellar;-inkscape-font-specification:'Castellar Bold';letter-spacing:0px;word-spacing:0px;fill:#000000;fill-opacity:1;stroke:none;stroke-width:0.2587899"
       id="text3806">
      <path
         d="m 19.032966,278.51406 h -1.280471 l -5.997996,19.9147 q -0.454904,1.48265 -0.977201,2.64518 -0.505449,1.16253 -1.1625332,1.73538 l 0.1347864,0.10109 q 2.2745208,-1.44896 3.2348738,-4.58274 z M 7.407637,277.85698 h 14.034637 q -0.926657,1.80277 -2.106038,5.59364 l -3.858262,12.63622 q -0.79187,2.66204 -1.667982,4.21208 -0.859263,1.53319 -2.257672,2.35876 -1.39841,0.82557 -3.6729305,0.9772 v -0.20218 q 1.2299262,-0.32011 2.0217964,-1.71852 0.7918701,-1.41526 1.3647131,-3.38651 l 3.959351,-12.9732 q 0.303269,-0.92665 0.572842,-1.9881 0.286421,-1.07829 0.522298,-2.05549 0.235876,-0.9772 0.353814,-1.85331 -2.173431,-0.5223 -5.206126,-0.5223 -1.5837404,0 -2.9316046,0.0674 -1.331016,0.0505 -2.662032,0.23588 l -1.2636227,3.9762 h -0.219028 l 0.4212076,-5.59364 q 1.111988,0.23588 2.5946387,0.23588 z"
         style="stroke-width:0.2587899"
         id="path3808"
         inkscape:connector-curvature="0" />
    </g>
  </g>
</svg>
