<?xml version="1.0" encoding="UTF-8" standalone="no"?>
<!-- Created with Inkscape (http://www.inkscape.org/) -->

<svg
   xmlns:dc="http://purl.org/dc/elements/1.1/"
   xmlns:cc="http://creativecommons.org/ns#"
   xmlns:rdf="http://www.w3.org/1999/02/22-rdf-syntax-ns#"
   xmlns:svg="http://www.w3.org/2000/svg"
   xmlns="http://www.w3.org/2000/svg"
   xmlns:sodipodi="http://sodipodi.sourceforge.net/DTD/sodipodi-0.dtd"
   xmlns:inkscape="http://www.inkscape.org/namespaces/inkscape"
   width="100"
   height="100"
   viewBox="0 0 26.458333 26.458333"
   version="1.1"
   id="svg3749"
   inkscape:version="0.92.2 (5c3e80d, 2017-08-06)"
   sodipodi:docname="n_8.svg">
  <defs
     id="defs3743" />
  <sodipodi:namedview
     id="base"
     pagecolor="#ffffff"
     bordercolor="#666666"
     borderopacity="1.0"
     inkscape:pageopacity="0.0"
     inkscape:pageshadow="2"
     inkscape:zoom="4.9077535"
     inkscape:cx="51.83893"
     inkscape:cy="57.20458"
     inkscape:document-units="mm"
     inkscape:current-layer="layer1"
     showgrid="false"
     units="px"
     viewbox-height="200"
     inkscape:pagecheckerboard="true"
     inkscape:window-width="1199"
     inkscape:window-height="782"
     inkscape:window-x="65"
     inkscape:window-y="108"
     inkscape:window-maximized="0" />
  <metadata
     id="metadata3746">
    <rdf:RDF>
      <cc:Work
         rdf:about="">
        <dc:format>image/svg+xml</dc:format>
        <dc:type
           rdf:resource="http://purl.org/dc/dcmitype/StillImage" />
        <dc:title></dc:title>
      </cc:Work>
    </rdf:RDF>
  </metadata>
  <g
     inkscape:label="Capa 1"
     inkscape:groupmode="layer"
     id="layer1"
     transform="translate(0,-270.54165)">
    <g
       aria-label="8"
       transform="scale(1.0377505,0.96362276)"
       style="font-style:normal;font-variant:normal;font-weight:bold;font-stretch:normal;font-size:36.10899353px;line-height:1.25;font-family:Castellar;-inkscape-font-specification:'Castellar Bold';letter-spacing:0px;word-spacing:0px;fill:#000000;fill-opacity:1;stroke:none;stroke-width:0.27081749"
       id="text3813">
      <path
         d="m 12.844898,281.30387 q 2.344969,0 4.090472,0.81104 1.763135,0.81105 2.679965,2.27445 0.91683,1.44577 0.91683,3.24417 0,2.0276 -1.375245,3.68495 -1.357614,1.63971 -3.790739,2.27444 v 0.0705 q 2.486019,1.04025 3.826001,1.7984 1.357614,0.74052 2.292075,2.09813 0.952093,1.33998 0.952093,3.34996 0,2.57417 -1.974711,4.54888 -1.146037,1.14604 -2.838646,1.67498 -1.674978,0.52894 -4.813357,0.52894 -2.803384,0 -4.7780946,-0.5642 -1.9747106,-0.58184 -3.2089047,-1.81603 -1.7631345,-1.7455 -1.7631345,-4.37257 0,-1.53393 0.7052538,-2.90917 0.7052538,-1.39288 2.0804986,-2.3626 1.3928763,-0.98736 3.4204809,-1.32236 -1.2870882,-0.79341 -2.2391808,-1.76313 -0.9344612,-0.96972 -1.4810329,-2.16866 -0.5465717,-1.21656 -0.5465717,-2.57417 0,-1.11078 0.3702582,-2.20392 0.3878896,-1.09314 1.3047195,-2.0805 0.9168299,-1.00498 2.4683883,-1.60445 1.5515579,-0.6171 3.7025819,-0.6171 z m 1.287089,25.67124 v 0.15868 q 2.344968,-0.12342 3.755476,-1.00498 1.428139,-0.8992 2.027605,-2.20392 0.617097,-1.30472 0.617097,-2.78576 0,-2.09813 -1.445771,-3.5439 -0.775779,-0.77577 -1.886554,-1.33998 -1.110774,-0.58183 -3.138379,-1.4634 -2.009973,-0.88157 -3.226536,-1.53393 -1.2165626,-0.66999 -2.1510239,-1.58682 -0.9697239,-0.96972 -1.4810329,-2.04523 -0.511309,-1.07552 -0.511309,-2.09813 0,-1.11078 0.5289403,-2.32734 0.5289403,-1.23419 1.7455031,-2.15102 1.2165624,-0.93447 3.1560104,-1.12841 v -0.21158 q -1.375245,0 -2.9091716,0.68763 -1.5162956,0.68762 -2.5741763,2.08049 -1.0578806,1.39288 -1.0578806,3.40285 0,1.04025 0.511309,2.22155 0.511309,1.16367 1.4810329,2.11576 1.1460374,1.11078 2.4154942,1.8513 1.2870884,0.72288 3.3146924,1.62208 2.045236,0.88157 3.01496,1.37524 0.969724,0.49368 1.639715,1.1813 1.339982,1.32236 1.339982,3.3147 0,2.09813 -1.375244,3.61442 -1.375245,1.5163 -3.790739,1.7984 z m -1.216563,-24.64862 q -1.234194,0 -2.309706,0.6171 -1.0755124,0.61709 -1.6749781,1.69261 -0.5994657,1.05788 -0.5994657,2.34497 0,0.81104 0.2997329,1.60445 0.3173642,0.79341 0.9520926,1.55156 0.6523593,0.75814 1.7278713,1.48103 1.093144,0.70525 2.503651,1.35761 1.357614,-0.37026 2.380232,-1.7455 1.040249,-1.37525 1.040249,-3.42048 0,-2.57418 -1.287088,-4.01995 -1.269457,-1.4634 -3.032591,-1.4634 z m 0.828673,-0.54657 v 0.21157 q 2.151024,0.49368 3.120748,2.20392 0.987355,1.69261 0.987355,3.61443 0,1.16367 -0.387889,2.22155 -0.370259,1.05788 -1.128406,1.88655 -0.758148,0.82867 -1.904186,1.30472 l 0.211577,0.10579 q 4.33731,-1.62208 4.33731,-5.48335 0,-2.46839 -1.463401,-4.07284 -1.445771,-1.62208 -3.773108,-1.99234 z m -3.173642,13.29403 q -1.6044524,0.31737 -2.8033838,1.90419 -1.1813001,1.56919 -1.1813001,3.826 0,1.63971 0.7581478,2.9797 0.7757792,1.33998 2.2039181,2.11576 1.428139,0.75815 3.402849,0.75815 1.95708,0 3.279431,-0.82868 1.32235,-0.8463 1.904185,-2.00997 0.581834,-1.16367 0.581834,-2.15102 0,-1.44578 -0.687622,-2.38024 -0.687623,-0.95209 -1.710241,-1.51629 -1.022618,-0.58184 -2.962066,-1.39288 -1.939448,-0.82867 -2.785752,-1.30472 z m -0.6876225,-0.37026 -0.1234194,-0.10578 q -1.8160285,0.29973 -3.2089047,1.1813 -1.3928762,0.88156 -2.1686554,2.22155 -0.7581478,1.33998 -0.7581478,2.90917 0,1.63971 0.8991986,3.05022 0.9168299,1.39288 2.5741763,2.27444 1.6573464,0.86394 3.8260019,0.96973 v -0.19395 q -1.9570794,-0.17631 -3.3675869,-1.11077 -1.3928763,-0.95209 -2.09813,-2.30971 -0.7052538,-1.37524 -0.7052538,-2.78575 0,-1.78077 1.2694568,-3.59679 1.2870881,-1.81603 3.8612644,-2.50366 z"
         style="stroke-width:0.27081749"
         id="path3815"
         inkscape:connector-curvature="0" />
    </g>
  </g>
</svg>
