<?xml version="1.0" encoding="UTF-8" standalone="no"?>
<!-- Created with Inkscape (http://www.inkscape.org/) -->

<svg
   xmlns:dc="http://purl.org/dc/elements/1.1/"
   xmlns:cc="http://creativecommons.org/ns#"
   xmlns:rdf="http://www.w3.org/1999/02/22-rdf-syntax-ns#"
   xmlns:svg="http://www.w3.org/2000/svg"
   xmlns="http://www.w3.org/2000/svg"
   xmlns:sodipodi="http://sodipodi.sourceforge.net/DTD/sodipodi-0.dtd"
   xmlns:inkscape="http://www.inkscape.org/namespaces/inkscape"
   width="100"
   height="100"
   viewBox="0 0 26.458333 26.458333"
   version="1.1"
   id="svg3749"
   inkscape:version="0.92.2 (5c3e80d, 2017-08-06)"
   sodipodi:docname="n_9.svg">
  <defs
     id="defs3743" />
  <sodipodi:namedview
     id="base"
     pagecolor="#ffffff"
     bordercolor="#666666"
     borderopacity="1.0"
     inkscape:pageopacity="0.0"
     inkscape:pageshadow="2"
     inkscape:zoom="4.9077535"
     inkscape:cx="51.83893"
     inkscape:cy="57.44862"
     inkscape:document-units="mm"
     inkscape:current-layer="layer1"
     showgrid="false"
     units="px"
     viewbox-height="200"
     inkscape:pagecheckerboard="true"
     inkscape:window-width="1199"
     inkscape:window-height="782"
     inkscape:window-x="65"
     inkscape:window-y="108"
     inkscape:window-maximized="0" />
  <metadata
     id="metadata3746">
    <rdf:RDF>
      <cc:Work
         rdf:about="">
        <dc:format>image/svg+xml</dc:format>
        <dc:type
           rdf:resource="http://purl.org/dc/dcmitype/StillImage" />
        <dc:title></dc:title>
      </cc:Work>
    </rdf:RDF>
  </metadata>
  <g
     inkscape:label="Capa 1"
     inkscape:groupmode="layer"
     id="layer1"
     transform="translate(0,-270.54165)">
    <g
       aria-label="9"
       transform="scale(1.0088794,0.99119874)"
       style="font-style:normal;font-variant:normal;font-weight:bold;font-stretch:normal;font-size:35.10441589px;line-height:1.25;font-family:Castellar;-inkscape-font-specification:'Castellar Bold';letter-spacing:0px;word-spacing:0px;fill:#000000;fill-opacity:1;stroke:none;stroke-width:0.26328313"
       id="text3820">
      <path
         d="m 13.378416,274.64335 q -1.25128,0 -2.331152,0.94275 -1.0627316,0.94274 -1.714083,2.63969 -0.6342107,1.6798 -0.6342107,3.78812 0,2.94822 1.2512805,4.6623 1.2684212,1.69695 3.4624472,1.69695 1.199858,0 2.725392,-0.73706 1.525533,-0.73706 2.399716,-2.03976 0.03428,-0.49708 0.03428,-1.79979 0,-2.19402 -0.42852,-3.94239 -0.428521,-1.74836 -1.199858,-2.8968 -0.754197,-1.16557 -1.679802,-1.73122 -0.908463,-0.58279 -1.88549,-0.58279 z m -9.4445959,23.5515 0.102845,-0.20569 q 1.4226887,0.30853 2.4854201,0.30853 3.2738981,0 5.8964448,-1.81692 2.622547,-1.81693 4.165221,-4.59374 1.559816,-2.77682 1.799787,-5.41651 l -0.06856,-0.0686 q -1.336985,1.91977 -3.10249,2.87966 -1.748364,0.94274 -3.428166,0.94274 -1.9369132,0 -3.5138694,-0.99416 -1.5598153,-0.99417 -2.4339976,-2.79396 -0.8570414,-1.79979 -0.8570414,-4.1138 0,-2.12546 1.0113089,-4.16522 1.0284497,-2.0569 2.8625183,-3.3596 1.8512092,-1.31984 4.1995032,-1.31984 2.605406,0 4.696587,1.3884 2.108321,1.38841 3.32532,3.94239 1.216999,2.53685 1.216999,5.84503 0,2.41685 -0.908464,5.00512 -0.891323,2.58826 -2.588265,4.71373 -1.696942,2.12546 -4.182362,3.42816 -2.48542,1.3027 -5.5536283,1.3027 -1.2169988,0 -2.1426035,-0.13712 -0.9084639,-0.13713 -1.6626603,-0.34282 -0.7541965,-0.22283 -1.3198438,-0.42852 z m 11.2615239,-9.30747 v -0.23997 q -1.182717,0.56565 -2.519702,0.56565 -1.405547,0 -2.48542,-0.51423 -1.0798718,-0.53136 -1.8340682,-1.50839 -0.7541965,-0.99417 -1.1484355,-2.29687 -0.3942391,-1.30271 -0.3942391,-2.77682 0,-2.09118 0.7884781,-3.85668 0.7884781,-1.76551 2.0911811,-2.82824 1.3027026,-1.07987 2.7939546,-1.31984 v -0.27426 q -1.954054,0.2914 -3.5652919,1.57696 -1.594097,1.28556 -2.4682793,3.18819 -0.8741822,1.90264 -0.8741822,4.01096 0,1.93691 0.8227598,3.59957 0.8227597,1.64552 2.2454484,2.62255 1.4226892,0.97703 3.1710532,0.97703 0.908464,0 1.64552,-0.22284 0.737055,-0.23997 1.731223,-0.70277 z m -1.079872,-14.77539 v 0.23997 q 1.559815,0.35996 2.69111,1.66266 1.148435,1.3027 1.748364,3.3596 0.61707,2.03976 0.61707,4.54232 0,3.32532 -1.011309,5.99929 -1.011308,2.65683 -2.622546,4.4909 -1.594097,1.81692 -3.376743,2.81109 -1.782647,0.99417 -3.2910394,1.14844 v 0.22283 q 3.3767434,-0.25711 5.9992894,-2.27973 2.639688,-2.03976 4.079518,-5.19367 1.439829,-3.15391 1.439829,-6.65064 0,-1.95406 -0.497084,-3.7367 -0.479943,-1.79979 -1.371266,-3.23962 -0.874182,-1.43983 -2.022618,-2.33115 -1.148435,-0.89133 -2.382575,-1.04559 z"
         style="stroke-width:0.26328313"
         id="path3822"
         inkscape:connector-curvature="0" />
    </g>
  </g>
</svg>
