<?xml version="1.0" encoding="UTF-8" standalone="no"?>
<!-- Created with Inkscape (http://www.inkscape.org/) -->

<svg
   xmlns:dc="http://purl.org/dc/elements/1.1/"
   xmlns:cc="http://creativecommons.org/ns#"
   xmlns:rdf="http://www.w3.org/1999/02/22-rdf-syntax-ns#"
   xmlns:svg="http://www.w3.org/2000/svg"
   xmlns="http://www.w3.org/2000/svg"
   xmlns:sodipodi="http://sodipodi.sourceforge.net/DTD/sodipodi-0.dtd"
   xmlns:inkscape="http://www.inkscape.org/namespaces/inkscape"
   width="100"
   height="100"
   viewBox="0 0 26.458333 26.458333"
   version="1.1"
   id="svg3749"
   inkscape:version="0.92.2 (5c3e80d, 2017-08-06)"
   sodipodi:docname="pic.svg">
  <defs
     id="defs3743">
    <pattern
       y="0"
       x="0"
       height="6"
       width="6"
       patternUnits="userSpaceOnUse"
       id="EMFhbasepattern" />
    <pattern
       y="0"
       x="0"
       height="6"
       width="6"
       patternUnits="userSpaceOnUse"
       id="EMFhbasepattern-8" />
  </defs>
  <sodipodi:namedview
     id="base"
     pagecolor="#ffffff"
     bordercolor="#666666"
     borderopacity="1.0"
     inkscape:pageopacity="0.0"
     inkscape:pageshadow="2"
     inkscape:zoom="3.65"
     inkscape:cx="50"
     inkscape:cy="50"
     inkscape:document-units="mm"
     inkscape:current-layer="layer1"
     showgrid="false"
     units="px"
     viewbox-height="200"
     inkscape:pagecheckerboard="true"
     inkscape:window-width="947"
     inkscape:window-height="534"
     inkscape:window-x="26"
     inkscape:window-y="495"
     inkscape:window-maximized="0" />
  <metadata
     id="metadata3746">
    <rdf:RDF>
      <cc:Work
         rdf:about="">
        <dc:format>image/svg+xml</dc:format>
        <dc:type
           rdf:resource="http://purl.org/dc/dcmitype/StillImage" />
        <dc:title></dc:title>
      </cc:Work>
    </rdf:RDF>
  </metadata>
  <g
     inkscape:label="Capa 1"
     inkscape:groupmode="layer"
     id="layer1"
     transform="translate(0,-270.54165)">
    <path
       id="path4346"
       d="m 13.229857,271.86457 c -5.6979917,6.51123 -11.8129097,10.26914 -11.90556,15.3665 -0.046326,1.67431 1.0654781,4.46484 4.5398632,4.98574 2.269932,0.37208 5.3737158,-1.1162 5.4200408,-4.09278 0,-0.59531 0.787528,-0.55809 0.787528,0.22324 -0.09265,2.38126 -1.019153,5.09738 -2.5942077,7.3298 h 7.4583457 c -1.528729,-2.23242 -2.455231,-4.94854 -2.547882,-7.3298 -0.04633,-0.78133 0.741202,-0.81855 0.741202,-0.22324 0.09265,2.97658 3.196434,4.46486 5.420042,4.09278 3.474385,-0.5209 4.586187,-3.31143 4.586187,-4.98574 -0.138976,-5.09736 -6.207567,-8.85527 -11.905559,-15.3665 z"
       style="fill:#000000;fill-opacity:1;fill-rule:nonzero;stroke:none;stroke-width:0.51896018"
       inkscape:connector-curvature="0" />
  </g>
</svg>
