<?xml version="1.0" encoding="UTF-8" standalone="no"?>
<!-- Created with Inkscape (http://www.inkscape.org/) -->

<svg
   xmlns:dc="http://purl.org/dc/elements/1.1/"
   xmlns:cc="http://creativecommons.org/ns#"
   xmlns:rdf="http://www.w3.org/1999/02/22-rdf-syntax-ns#"
   xmlns:svg="http://www.w3.org/2000/svg"
   xmlns="http://www.w3.org/2000/svg"
   xmlns:sodipodi="http://sodipodi.sourceforge.net/DTD/sodipodi-0.dtd"
   xmlns:inkscape="http://www.inkscape.org/namespaces/inkscape"
   width="100"
   height="100"
   viewBox="0 0 26.458333 26.458333"
   version="1.1"
   id="svg3749"
   inkscape:version="0.92.2 (5c3e80d, 2017-08-06)"
   sodipodi:docname="tre.svg">
  <defs
     id="defs3743">
    <pattern
       y="0"
       x="0"
       height="6"
       width="6"
       patternUnits="userSpaceOnUse"
       id="EMFhbasepattern" />
  </defs>
  <sodipodi:namedview
     id="base"
     pagecolor="#ffffff"
     bordercolor="#666666"
     borderopacity="1.0"
     inkscape:pageopacity="0.0"
     inkscape:pageshadow="2"
     inkscape:zoom="3.65"
     inkscape:cx="50"
     inkscape:cy="50"
     inkscape:document-units="mm"
     inkscape:current-layer="layer1"
     showgrid="false"
     units="px"
     viewbox-height="200"
     inkscape:pagecheckerboard="true"
     inkscape:window-width="947"
     inkscape:window-height="534"
     inkscape:window-x="26"
     inkscape:window-y="495"
     inkscape:window-maximized="0" />
  <metadata
     id="metadata3746">
    <rdf:RDF>
      <cc:Work
         rdf:about="">
        <dc:format>image/svg+xml</dc:format>
        <dc:type
           rdf:resource="http://purl.org/dc/dcmitype/StillImage" />
        <dc:title></dc:title>
      </cc:Work>
    </rdf:RDF>
  </metadata>
  <g
     inkscape:label="Capa 1"
     inkscape:groupmode="layer"
     id="layer1"
     transform="translate(0,-270.54165)">
    <path
       id="path4333"
       d="m 13.229167,271.86457 c -5.1955329,0.11162 -7.5355078,5.58106 -3.6884322,9.82266 0.5552472,0.63251 0.6345682,1.00457 -0.3966055,0.40927 -2.5779363,-1.63712 -7.5355072,-0.55811 -7.813132,4.39043 -0.3172844,6.10196 8.8046447,7.85068 10.5100497,1.37666 0.07932,-0.70693 0.67423,-0.66973 0.555249,0.29765 -0.15865,2.6417 -1.031176,5.09736 -2.260654,7.51583 h 6.187049 c -1.229478,-2.41847 -2.10201,-4.87413 -2.260652,-7.51583 -0.118983,-0.96738 0.475927,-1.00458 0.555248,-0.29765 1.705404,6.47402 10.827334,4.7253 10.510049,-1.37666 -0.277624,-4.94854 -5.235194,-6.02755 -7.81313,-4.39043 -1.031175,0.5953 -0.951855,0.22324 -0.396606,-0.40927 3.847075,-4.2416 1.507101,-9.71104 -3.688433,-9.82266 0,0 0,0 0,0 z"
       style="fill:#000000;fill-opacity:1;fill-rule:nonzero;stroke:none;stroke-width:0.4801811"
       inkscape:connector-curvature="0" />
  </g>
</svg>
